<svg width="44" height="50" viewBox="0 0 44 50" fill="none" xmlns="http://www.w3.org/2000/svg">
<path d="M31.6507 26.2322H31.2741C30.6854 22.8153 30.5905 19.3094 28.5499 17.3081C26.5507 15.348 23.9366 14.7416 22.2022 13.1552V12.4126C22.2827 12.3745 22.3507 12.3144 22.3984 12.2393C22.4461 12.1641 22.4716 12.077 22.4719 11.988C22.4716 11.8989 22.4462 11.8118 22.3984 11.7366C22.3507 11.6614 22.2827 11.6013 22.2022 11.5632V11.2474C22.2435 11.2 22.2694 11.1387 22.2694 11.0708C22.2694 10.9217 21.9998 10.1535 21.9998 10.1535C21.9998 10.1535 21.73 10.9217 21.73 11.0708C21.73 11.1387 21.756 11.2001 21.7975 11.2476V11.5632C21.717 11.6013 21.6489 11.6615 21.6011 11.7367C21.5533 11.8118 21.5278 11.899 21.5275 11.9881C21.5275 12.1757 21.6384 12.3368 21.7975 12.4127V13.1552C20.0628 14.7416 17.4487 15.3481 15.4498 17.3081C13.4091 19.3094 13.3144 22.8153 12.7255 26.2322H12.3489L11.7013 27.9048H32.2983L31.6507 26.2322ZM0.925537 29.2094V50H15.8617V38.8674C15.8617 36.1545 21.9996 34.3767 21.9996 34.3767C21.9996 34.3767 28.1381 36.1545 28.1381 38.8674V50H43.0743V29.2094H0.925537ZM36.4732 27.8605H42.0609V20.9833H42.5884V19.264H41.5335V12.5821H42.5884V10.8629H40.9257V6.50495C40.9257 5.70536 40.3597 5.03821 39.6068 4.88148V3.79475C39.8741 3.66721 40.0596 3.39509 40.0596 3.07972C40.0596 2.76436 39.874 2.49223 39.6068 2.36469V1.8364C39.6763 1.75688 39.72 1.65389 39.72 1.53972C39.72 1.28956 39.267 -0.000273705 39.267 -0.000273705C39.267 -0.000273705 38.8143 1.28956 38.8143 1.53972C38.8143 1.65376 38.8579 1.75674 38.9275 1.8364V2.36456C38.6603 2.49209 38.4746 2.76422 38.4746 3.07959C38.4746 3.39495 38.6603 3.66721 38.9275 3.79461V4.88121C38.1745 5.03793 37.6086 5.70495 37.6086 6.50468V10.8625H35.9458V12.5817H37.0008V19.2636H35.9458V20.9828H36.4733L36.4732 27.8605ZM1.93888 27.8605H7.52666V20.9833H8.05413V19.264H6.99918V12.5821H8.05413V10.8629H6.39137V6.50495C6.39137 5.70536 5.82557 5.03821 5.07248 4.88148V3.79475C5.3397 3.66721 5.52534 3.39509 5.52534 3.07972C5.52534 2.76436 5.3397 2.49223 5.07248 2.36469V1.8364C5.14205 1.75688 5.1857 1.65389 5.1857 1.53972C5.1857 1.28983 4.73256 -8.97126e-07 4.73256 -8.97126e-07C4.73256 -8.97126e-07 4.27984 1.28983 4.27984 1.54C4.27984 1.65403 4.32349 1.75702 4.39306 1.83667V2.36483C4.12584 2.49237 3.9402 2.76449 3.9402 3.07986C3.9402 3.39522 4.12584 3.66749 4.39306 3.79489V4.88148C3.63997 5.03821 3.07417 5.70522 3.07417 6.50495V10.8628H1.41141V12.582H2.46635V19.2639H1.41141V20.9831H1.93888V27.8605Z" fill="#CCA90D"/>
</svg>
