<svg width="231" height="231" viewBox="0 0 231 231" fill="none" xmlns="http://www.w3.org/2000/svg">
<path d="M173.124 64.8128L78.7225 119.22L76.9179 122.126C86.4113 119.04 86.5543 123.4 92.2974 123.153C87.0807 127.594 83.2171 137.709 77.644 139.979C73.1068 141.831 64.6646 145.47 61.6889 146.757L54.8368 157.867L57.3303 161.208L177.241 99.6776L174.87 66.3387L173.124 64.8128Z" fill="#001C18"/>
<path d="M161.371 143.299C156.662 140.395 156.107 129.54 152.435 124.425C158.3 125.309 162.138 121.188 172.049 126.908L171.413 120.869L75.5044 69.3555L47.6549 96.3785L46.3415 98.8362L173.718 165.757L175.901 163.475L174.676 151.857C172.119 150.17 165.166 145.637 161.371 143.299Z" fill="#001C18"/>
<path d="M172.053 126.908L170.17 128.905C168.071 127.382 165.631 126.396 163.064 126.033C158.993 125.533 157.605 127.561 151.959 126.319C151.429 125.965 151.049 125.427 150.892 124.809C150.736 124.19 150.815 123.536 151.113 122.973L163.199 121.511L172.053 126.908Z" fill="#001C18"/>
<path d="M161.371 143.299C156.662 140.394 156.107 129.54 152.435 124.425C158.3 125.309 162.138 121.188 172.049 126.908L171.413 120.869L70.1629 67.7561L47.655 96.3784L175.911 163.461L174.686 151.843C172.119 150.17 165.166 145.637 161.371 143.299Z" fill="#004B40"/>
<path d="M121.395 94.6279L84.7294 115.761L115.021 131.608L153.88 111.665L121.395 94.6279Z" fill="#001C18"/>
<path d="M76.9178 122.126L78.5384 124.665C78.5384 124.665 81.1839 122.619 84.3243 123.77C87.4646 124.92 90.2553 126.878 94.6141 124.984C94.9276 123.32 94.6613 121.6 93.8595 120.109C93.8595 120.109 83.0898 118.544 82.862 118.579C82.6343 118.614 76.9178 122.126 76.9178 122.126Z" fill="#001C18"/>
<path d="M78.7225 119.22L76.9179 122.126C86.4113 119.04 86.5543 123.4 92.2974 123.153C87.0807 127.594 83.2171 137.709 77.644 139.979C73.1068 141.831 64.6646 145.47 61.6889 146.757L54.8368 157.867L174.792 97.8391L173.124 64.8128L78.7225 119.22Z" fill="#004B40"/>
<path d="M121.328 92.7113L77.506 115.194L108.13 131.283L110.97 129.78L121.328 92.7113Z" fill="#001C18"/>
<path d="M121.328 92.7113L80.5728 113.623L110.97 129.78L121.328 92.7113Z" fill="#001C18"/>
<path d="M50.1324 95.1234C50.1324 95.1234 102.847 124.196 104.786 125.197C106.725 126.198 110.652 127.861 115.98 125.248C121.308 122.636 172.788 96.8154 172.788 96.8154L171.62 63.4213L171.133 62.6006L120.006 87.5028L74.6169 63.8875L49.9827 94.1565L50.1324 95.1234Z" fill="#001C18"/>
<path d="M49.9827 94.1565C49.9827 94.1565 102.697 123.229 104.637 124.234C106.576 125.239 110.503 126.894 115.831 124.285C121.159 121.677 171.922 96.2417 171.922 96.2417L171.136 62.6206L119.853 86.5159L74.4648 62.9046L49.9827 94.1565Z" fill="#87D1A4"/>
<path d="M76.6659 61.9256L51.4072 93.6578L104.122 122.731C104.122 122.731 106.51 121.133 108.332 120.851C110.154 120.569 114.67 123.553 114.67 123.553L169.492 95.7995L169.039 62.5033L163.74 61.0692L120.841 84.4113L78.4041 61.6565L76.6659 61.9256Z" fill="#EFE8C5"/>
<path d="M164.742 61.3068C164.709 64.0533 164.639 66.7973 164.565 69.5419L164.287 77.7679L163.926 86.0068L163.717 90.1306L163.465 94.2366L163.538 90.1339L163.646 86.0255L163.92 77.8002L164.281 69.5612C164.416 66.7867 164.557 64.0482 164.742 61.3068Z" fill="#FFD1A3"/>
<path d="M165.512 61.6541C165.521 64.3532 165.528 67.0442 165.479 69.744L165.345 77.8333L165.127 85.919L164.988 89.9625L164.796 94.0061L164.795 89.9596L164.832 85.9156L164.973 77.8091L165.194 69.7227C165.282 67.0414 165.376 64.3469 165.512 61.6541Z" fill="#FFD1A3"/>
<path d="M166.495 61.9234C166.532 64.6221 166.512 67.3215 166.52 70.0166L166.462 78.1022L166.288 86.1977L166.177 90.2408L166.03 94.2856L165.997 90.2401L166 86.193L166.074 78.105L166.237 70.0153C166.303 67.3171 166.38 64.6171 166.495 61.9234Z" fill="#FFD1A3"/>
<path d="M167.45 62.1724C167.507 64.8681 167.528 67.5653 167.54 70.2597L167.531 78.3459L167.432 86.4296L167.354 90.4718L167.239 94.5116L167.173 90.4671L167.149 86.4244L167.158 78.3382L167.252 70.2551C167.286 67.5658 167.355 64.867 167.45 62.1724Z" fill="#FFD1A3"/>
<path d="M168.393 62.4519C168.475 65.1764 168.517 67.9031 168.547 70.6111L168.606 78.7851L168.58 86.9721L168.539 91.0699L168.459 95.1739L168.36 91.0977L168.3 87.0154L168.262 78.8383L168.288 70.6513C168.289 67.8852 168.32 65.176 168.393 62.4519Z" fill="#FFD1A3"/>
<path d="M55.9687 91.5401C55.9687 91.5401 67.7929 97.5123 77.5633 101.159C87.3338 104.806 106.157 114.682 108.332 120.831C112.906 114.509 118.694 106.359 131.444 102.978C144.193 99.597 159.98 95.4594 161.983 93.8319C162.233 88.155 163.767 61.0363 163.767 61.0363C159.498 62.5548 155.144 63.8258 150.728 64.8428C143.918 66.3634 123.225 74.1736 120.861 84.4083C116.546 77.1795 111.249 73.3024 101.721 70.6408C92.1933 67.9791 78.4041 61.6565 78.4041 61.6565L55.9687 91.5401Z" fill="#FBF9EF"/>
<path d="M108.342 120.838C112.906 114.509 118.694 106.359 131.444 102.978C144.193 99.597 159.98 95.4593 161.983 93.8319C162.233 88.155 163.767 61.0363 163.767 61.0363C159.498 62.5548 155.144 63.8257 150.728 64.8427C143.918 66.3634 123.225 74.1736 120.861 84.4082L108.342 120.838Z" fill="#FBF9EF"/>
<path d="M140.814 101.716C117.098 110.399 108.342 120.838 108.342 120.838C110.176 120.554 114.68 123.539 114.68 123.539L169.502 95.7856C169.502 95.7856 164.386 94.45 161.965 93.851C159.397 95.8933 154.265 96.7081 140.814 101.716Z" fill="#FBF9EF"/>
<path d="M90.8234 105.412C82.1958 101.297 55.9686 91.5401 55.9686 91.5401L51.3865 93.6569L104.101 122.73C104.101 122.73 106.489 121.133 108.311 120.851C108.38 115.005 99.447 109.527 90.8234 105.412Z" fill="#FBF9EF"/>
<path d="M90.8234 105.412C82.1958 101.297 55.9686 91.5401 55.9686 91.5401C55.9686 91.5401 90.3087 107.558 94.669 109.612C99.0294 111.666 107.512 117.304 108.342 120.838C108.38 115.005 99.447 109.527 90.8234 105.412Z" fill="#FCCE98"/>
<path d="M55.6941 92.806C55.6941 92.806 100.195 114.967 108.342 120.838C102.138 114.752 69.806 98.3586 55.6941 92.806Z" fill="#FCCE98"/>
<path d="M54.3795 93.0095L60.8819 96.3727L67.3693 99.7709L80.3155 106.621L93.2162 113.548L99.6567 117.039L106.073 120.563L99.571 117.2L93.0837 113.801L80.1375 106.951L67.2361 100.021L60.7963 96.5332L54.3795 93.0095Z" fill="#FCCE98"/>
<path d="M110.176 120.554C112.127 119.069 114.125 117.651 116.128 116.236C118.13 114.822 120.176 113.474 122.236 112.14C123.266 111.47 124.302 110.814 125.353 110.181C126.405 109.547 127.458 108.922 128.555 108.343C130.749 107.214 133.008 106.238 135.276 105.298C137.545 104.358 139.849 103.518 142.149 102.675C144.449 101.832 146.749 100.989 149.068 100.189C151.386 99.3877 153.675 98.5793 156 97.7406C158.319 96.9585 160.593 96.0506 162.813 95.0208C161.748 95.6327 160.646 96.1789 159.515 96.6565C158.393 97.1534 157.257 97.6156 156.127 98.0811C153.845 98.9867 151.556 99.8524 149.266 100.727C144.686 102.463 140.079 104.129 135.559 105.987C133.294 106.898 131.04 107.848 128.873 108.944C127.796 109.496 126.735 110.094 125.684 110.731L122.538 112.609C120.448 113.882 118.38 115.192 116.328 116.525C114.275 117.857 112.222 119.206 110.176 120.554Z" fill="#FCCE98"/>
<path d="M112.136 120.766C116.167 118.123 120.307 115.658 124.554 113.369C126.671 112.223 128.819 111.125 131 110.076C132.08 109.545 133.182 109.055 134.278 108.55C135.374 108.045 136.489 107.581 137.6 107.119C142.043 105.265 146.464 103.353 150.876 101.427C153.083 100.466 155.285 99.4894 157.48 98.4977C158.578 98.0045 159.676 97.5113 160.763 96.9994C161.849 96.4875 162.945 95.9783 164.001 95.3975C159.783 97.7279 155.372 99.6832 150.993 101.687C146.615 103.69 142.185 105.575 137.743 107.461C133.287 109.28 128.939 111.381 124.695 113.617C122.565 114.733 120.455 115.89 118.363 117.089C116.259 118.278 114.181 119.496 112.136 120.766Z" fill="#FCCE98"/>
<path d="M107.045 113.228L106.571 112.622C104.991 110.661 98.3415 106.322 91.8048 103.451C85.5572 100.703 67.0762 92.3534 66.8877 92.2721L66.4448 92.0542L84.4348 66.5452L84.8097 66.7204C84.9666 66.782 100.475 72.7689 106.608 75.5388C112.74 78.3088 117.963 83.2898 118.016 83.3429L118.378 83.7819L118.335 83.8951C118.274 84.0599 112.144 100.282 107.165 112.947L107.045 113.228ZM67.245 92.0163C69.2926 92.9268 86.0633 100.51 91.9517 103.105C97.8401 105.7 104.569 109.843 106.657 112.15C111.388 100.101 117.108 84.985 117.665 83.5077C116.957 82.8481 112.111 78.4185 106.453 75.8615C100.638 73.2348 86.3686 67.6983 84.8079 67.1053L67.245 92.0163Z" fill="#004B40"/>
<path d="M113.217 112.104L112.49 113.113L122.577 82.9111L122.597 82.908C122.636 82.8486 126.724 76.9788 132.069 74.032C140.173 69.7948 154.544 66.0768 154.688 66.03L155.636 65.785L155.597 66.0611L151.525 93.1963L151.507 93.3218L150.72 93.5254C118.84 100.666 113.286 111.996 113.217 112.104ZM122.931 83.0894L113.711 110.751C116.088 107.601 124.728 99.0054 150.533 93.1862C151.619 85.9561 154.183 68.8454 154.542 66.4577C152.517 66.992 139.723 70.4537 132.277 74.3435C127.154 77.1454 123.2 82.6836 122.931 83.0894Z" fill="#004B40"/>
</svg>
