<svg width="50" height="50" viewBox="0 0 50 50" fill="none" xmlns="http://www.w3.org/2000/svg">
<path d="M24.6289 2.64928C24.8274 2.42939 25.1726 2.42939 25.3711 2.64928L30.3484 8.16177C31.0538 8.94299 32.0733 9.36528 33.1245 9.31166L40.5419 8.93324C40.8378 8.91815 41.0819 9.16219 41.0668 9.45807L40.6883 16.8755C40.6347 17.9267 41.057 18.9462 41.8382 19.6516L47.3507 24.6289C47.5706 24.8274 47.5706 25.1726 47.3507 25.3711L41.8382 30.3484C41.057 31.0538 40.6347 32.0733 40.6883 33.1245L41.0668 40.5419C41.0819 40.8378 40.8378 41.0819 40.5419 41.0668L33.1245 40.6883C32.0733 40.6347 31.0538 41.057 30.3484 41.8382L25.3711 47.3507C25.1726 47.5706 24.8274 47.5706 24.6289 47.3507L19.6516 41.8382C18.9462 41.057 17.9267 40.6347 16.8755 40.6883L9.45807 41.0668C9.16219 41.0819 8.91815 40.8378 8.93324 40.5419L9.31166 33.1245C9.36528 32.0733 8.94299 31.0538 8.16176 30.3484L2.64928 25.3711C2.42939 25.1726 2.42939 24.8274 2.64928 24.6289L8.16177 19.6516C8.94299 18.9462 9.36528 17.9267 9.31166 16.8755L8.93324 9.45807C8.91815 9.16219 9.16219 8.91815 9.45807 8.93324L16.8755 9.31166C17.9267 9.36528 18.9462 8.94299 19.6516 8.16176L24.6289 2.64928Z" stroke="white" stroke-width="3"/>
</svg>
